<svg width="54" height="69" viewBox="0 0 54 69" fill="none" xmlns="http://www.w3.org/2000/svg">
<path d="M46.192 0.319996C48.496 0.319996 50.256 1.024 51.472 2.432C52.752 3.776 53.392 5.504 53.392 7.616C53.392 9.792 52.784 11.904 51.568 13.952L22.48 64.352C21.584 65.888 20.464 67.04 19.12 67.808C17.84 68.512 16.496 68.864 15.088 68.864C12.848 68.864 10.864 68.128 9.136 66.656C7.408 65.12 6.544 63.264 6.544 61.088C6.544 59.552 6.992 58.016 7.888 56.48L32.56 14.336H8.56C5.616 14.336 3.472 13.76 2.128 12.608C0.848 11.456 0.208 9.728 0.208 7.424C0.208 5.056 0.88 3.296 2.224 2.144C3.568 0.927996 5.68 0.319996 8.56 0.319996H46.192Z" fill="#47536D"/>
</svg>
